<svg width="466" height="261" viewBox="0 0 466 261" fill="none" xmlns="http://www.w3.org/2000/svg">
<path d="M64 32.5L46.5 0L117.5 70C108.667 86 90.8 118.3 90 119.5C89.6 120.7 90.1667 121 90.5 121H124L0 244C20.5 209.167 61.7 139.2 62.5 138C62.9 136.8 62.3333 136.167 62 136L34.5 135.5L64 32.5Z" fill="white"/>
<path d="M154.828 0H58.5L131.5 70C128.333 64.5 121.8 53.2 121 52C120.2 49.6 122.667 49 124 49C183.5 47 195 75.5 196.5 94.5C197.5 151.5 143.5 175 95.5 181.5C93.1 181.5 93.8333 179.5 94.5 178.5L135 123.5L38.5 219C44.5 220.5 77 221.167 92.5 221C197 219 263 166 263 91.5C263 46.5 234 1.5 154.828 0Z" fill="white"/>
<path d="M328.5 19.5L252.5 29L301 96.5L271 136C219 200.5 213 231 203 261L330.5 138.5L349 167.5L344 176.5L410 239.5L370.5 93.5L466 0L402.5 10L400 29L277.5 157L352 69L327.5 35L328.5 19.5Z" fill="white"/>
</svg>
